# xmcd
#
# Track frame offsets:
#   150
#   14035
#   27732
#   43170
#   57840
#   70862
#   81327
#   91250
#   104215
#   114054
#   123860
#   134532
#   142802
#   158430
#   170730
#   181980
#   193570
#   202750
#
# Disc length: 2861 seconds
#
# Revision: 0
# Processed by: cddbd v1.5PL3 Copyright (c) Steve Scherf et al.
# Submitted via: Media_Universe 3.0
#
DISCID=f80b2b12
DTITLE=Various Artist - Country Classics
DYEAR=1996
DGENRE=Country
TTITLE0=Rose Garden
TTITLE1=Big Bad John
TTITLE2=No Charge
TTITLE3=Harper Valley P.T.A
TTITLE4=It's Four In The Morning
TTITLE5=Abilene
TTITLE6=Please Help Me I'm Falling
TTITLE7=Wolverton Mountain
TTITLE8=From A Jack To A King
TTITLE9=Cowboy Boots
TTITLE10=May The Bird Of Paradise Fly Up Your Nose
TTITLE11=Blue Blue Day
TTITLE12=I'm A Truck
TTITLE13=Take This Job And Shove It
TTITLE14=Waterloo
TTITLE15=Lonely Street
TTITLE16=Goodtime Charlie's
TTITLE17=The End Of The World
EXTD=
EXTT0=
EXTT1=
EXTT2=
EXTT3=
EXTT4=
EXTT5=
EXTT6=
EXTT7=
EXTT8=
EXTT9=
EXTT10=
EXTT11=
EXTT12=
EXTT13=
EXTT14=
EXTT15=
EXTT16=
EXTT17=
PLAYORDER=
